<?xml version="1.0" standalone="no"?>
<!DOCTYPE svg PUBLIC "-//W3C//DTD SVG 20010904//EN"
 "http://www.w3.org/TR/2001/REC-SVG-20010904/DTD/svg10.dtd">
<svg version="1.0" xmlns="http://www.w3.org/2000/svg"
 width="663.000000pt" height="664.000000pt" viewBox="0 0 663.000000 664.000000"
 preserveAspectRatio="xMidYMid meet">

<g transform="translate(0.000000,664.000000) scale(0.100000,-0.100000)"
fill="#000000" stroke="none">
<path d="M3148 6619 c-15 -11 -42 -46 -59 -77 -18 -31 -56 -93 -84 -137 -29
-44 -70 -108 -91 -143 -21 -35 -48 -78 -59 -95 -12 -18 -67 -108 -124 -202
-57 -93 -126 -204 -152 -245 -41 -64 -117 -187 -226 -365 -14 -22 -44 -71 -68
-110 -24 -38 -67 -108 -95 -155 -28 -47 -69 -114 -92 -150 -22 -36 -65 -108
-95 -160 -31 -52 -61 -102 -68 -110 -6 -8 -27 -42 -45 -75 -19 -33 -37 -62
-40 -65 -3 -3 -21 -32 -40 -65 -18 -33 -47 -80 -64 -105 -25 -37 -30 -54 -30
-107 0 -44 5 -68 17 -81 9 -10 17 -23 17 -29 0 -11 74 -35 111 -35 32 -1 242
29 298 42 24 6 47 7 51 3 7 -7 -29 -70 -282 -485 -46 -76 -100 -166 -120 -200
-44 -76 -60 -103 -141 -236 -426 -705 -415 -683 -387 -766 25 -76 102 -102
255 -86 512 54 635 64 635 52 0 -14 -65 -106 -245 -347 -9 -11 -33 -45 -55
-75 -21 -30 -46 -64 -54 -75 -9 -11 -56 -76 -106 -145 -49 -69 -97 -134 -105
-145 -9 -11 -34 -45 -55 -75 -21 -30 -46 -64 -55 -75 -8 -11 -56 -76 -105
-145 -50 -69 -97 -134 -106 -145 -8 -11 -33 -45 -54 -75 -50 -71 -60 -83 -116
-154 -61 -77 -78 -138 -58 -206 15 -49 48 -86 88 -96 22 -5 147 20 174 36 9 6
80 33 157 60 77 28 154 57 172 65 17 8 36 15 43 15 7 0 26 7 43 15 39 17 104
41 172 62 28 9 55 19 60 23 6 4 28 13 50 19 22 7 49 17 60 22 11 5 83 31 160
59 77 28 154 57 170 64 17 8 66 26 110 41 44 15 88 31 98 36 15 9 17 5 16 -28
0 -21 -4 -69 -9 -108 -9 -65 -23 -178 -70 -580 -11 -88 -23 -180 -28 -204 -15
-69 17 -149 70 -177 77 -40 1159 -40 1236 0 50 26 75 78 74 153 -1 36 -6 80
-11 97 -5 17 -15 83 -21 146 -6 63 -15 135 -20 160 -6 25 -17 99 -26 165 -8
66 -22 165 -29 220 -8 55 -14 112 -15 126 0 26 1 27 43 18 23 -5 67 -18 97
-28 30 -11 150 -49 265 -86 116 -37 217 -70 225 -74 8 -4 40 -14 70 -21 30 -7
60 -16 65 -20 6 -4 33 -13 60 -20 28 -7 55 -16 60 -20 6 -4 26 -11 45 -15 19
-4 49 -13 65 -20 17 -7 71 -25 120 -40 50 -15 169 -53 265 -85 96 -32 203 -64
237 -70 57 -11 65 -11 107 9 49 24 70 50 79 97 12 63 -3 100 -75 186 -38 46
-81 97 -94 113 -13 17 -58 71 -100 120 -42 50 -88 105 -103 123 -14 18 -69 83
-121 145 -53 62 -103 123 -112 137 -9 14 -42 55 -75 91 -32 37 -69 81 -83 99
-14 18 -59 72 -100 120 -41 48 -86 102 -100 120 -14 17 -64 78 -111 135 -47
56 -91 109 -97 116 -7 8 -34 41 -62 74 -27 33 -50 64 -50 68 0 12 84 6 525
-34 364 -34 399 -33 450 13 45 39 64 101 48 150 -11 32 -57 113 -73 128 -3 3
-20 28 -38 55 -46 72 -54 83 -88 129 -16 22 -44 61 -60 86 -100 148 -271 400
-293 431 -14 20 -33 47 -41 59 -8 12 -35 51 -60 85 -25 35 -69 99 -98 142
-155 228 -272 399 -280 409 -15 16 -32 52 -32 65 0 7 9 9 28 5 15 -4 79 -13
142 -22 63 -8 135 -17 160 -21 147 -20 234 31 234 134 -1 55 -17 89 -105 213
-33 47 -76 110 -96 140 -20 30 -46 69 -60 85 -30 39 -26 32 -116 165 -78 115
-169 247 -256 370 -25 36 -70 101 -100 145 -29 44 -74 108 -97 143 -24 34 -64
90 -88 125 -95 136 -178 256 -240 347 -36 52 -84 122 -107 155 -23 33 -61 87
-84 120 -221 317 -272 385 -288 385 -6 0 -24 -10 -39 -21z"/>
</g>
</svg>
